<?xml version="1.0" encoding="UTF-8"?>
<!DOCTYPE svg PUBLIC "-//W3C//DTD SVG 1.1//EN" "http://www.w3.org/Graphics/SVG/1.1/DTD/svg11.dtd">
<!-- Creator: CorelDRAW 2021 (64-Bit) -->
<svg xmlns="http://www.w3.org/2000/svg" xml:space="preserve" width="126px" height="113px" version="1.1" style="shape-rendering:geometricPrecision; text-rendering:geometricPrecision; image-rendering:optimizeQuality; fill-rule:evenodd; clip-rule:evenodd"
viewBox="0 0 13.08 11.69"
 xmlns:xlink="http://www.w3.org/1999/xlink"
 xmlns:xodm="http://www.corel.com/coreldraw/odm/2003">
 <defs>
  <style type="text/css">
   <![CDATA[
    .str0 {stroke:#C0C0BF;stroke-width:0.09;stroke-miterlimit:22.9256}
    .fil0 {fill:#C87500;fill-rule:nonzero}
   ]]>
  </style>
 </defs>
 <g id="id_frame_buttons">
  <metadata id="CorelCorpID_0Corel-Layer"/>
  <path class="fil0 str0" d="M13.03 7.7c0,0.8 -0.31,1.89 -0.92,3.27 -0.02,0.03 -0.04,0.09 -0.08,0.17 -0.03,0.08 -0.06,0.15 -0.1,0.22 -0.02,0.06 -0.05,0.11 -0.09,0.16 -0.06,0.08 -0.12,0.12 -0.2,0.12 -0.07,0 -0.13,-0.03 -0.17,-0.07 -0.04,-0.05 -0.06,-0.11 -0.06,-0.18 0,-0.05 0,-0.11 0.01,-0.2 0.02,-0.08 0.02,-0.14 0.02,-0.17 0.03,-0.32 0.04,-0.62 0.04,-0.89 0,-0.48 -0.04,-0.92 -0.13,-1.31 -0.08,-0.38 -0.2,-0.72 -0.35,-1 -0.15,-0.28 -0.34,-0.53 -0.58,-0.73 -0.24,-0.21 -0.49,-0.38 -0.76,-0.51 -0.28,-0.13 -0.6,-0.23 -0.97,-0.31 -0.37,-0.07 -0.74,-0.12 -1.11,-0.15 -0.38,-0.03 -0.8,-0.04 -1.27,-0.04l-1.63 0 0 1.85c0,0.13 -0.04,0.24 -0.13,0.33 -0.1,0.09 -0.2,0.13 -0.33,0.13 -0.12,0 -0.24,-0.04 -0.33,-0.13l-3.7 -3.71c-0.1,-0.1 -0.14,-0.2 -0.14,-0.33 0,-0.12 0.04,-0.23 0.14,-0.33l3.7 -3.7c0.09,-0.1 0.21,-0.14 0.33,-0.14 0.13,0 0.23,0.04 0.33,0.14 0.09,0.09 0.13,0.2 0.13,0.32l0 1.86 1.63 0c3.44,0 5.55,0.97 6.34,2.92 0.25,0.64 0.38,1.45 0.38,2.41z"/>
 </g>
</svg>
