<?xml version="1.0" encoding="UTF-8"?>
<!DOCTYPE svg PUBLIC "-//W3C//DTD SVG 1.1//EN" "http://www.w3.org/Graphics/SVG/1.1/DTD/svg11.dtd">
<!-- Creator: CorelDRAW 2021 (64-Bit) -->
<svg xmlns="http://www.w3.org/2000/svg" xml:space="preserve" width="110px" height="104px" version="1.1" style="shape-rendering:geometricPrecision; text-rendering:geometricPrecision; image-rendering:optimizeQuality; fill-rule:evenodd; clip-rule:evenodd"
viewBox="0 0 12.33 11.66"
 xmlns:xlink="http://www.w3.org/1999/xlink"
 xmlns:xodm="http://www.corel.com/coreldraw/odm/2003">
 <defs>
  <style type="text/css">
   <![CDATA[
    .str0 {stroke:#C0C0BF;stroke-width:0.1;stroke-miterlimit:22.9256}
    .fil0 {fill:#1060AA;fill-rule:nonzero}
   ]]>
  </style>
 </defs>
 <g id="id_frame_buttons">
  <metadata id="CorelCorpID_0Corel-Layer"/>
  <path class="fil0 str0" d="M12.28 6.17c0,0.26 -0.09,0.5 -0.29,0.7l-0.59 0.59c-0.2,0.2 -0.43,0.3 -0.71,0.3 -0.28,0 -0.52,-0.1 -0.71,-0.3l-2.3 -2.3 0 5.53c0,0.27 -0.1,0.49 -0.3,0.66 -0.2,0.17 -0.43,0.26 -0.71,0.26l-1.01 0c-0.27,0 -0.51,-0.09 -0.71,-0.26 -0.19,-0.17 -0.29,-0.39 -0.29,-0.66l0 -5.53 -2.31 2.3c-0.19,0.2 -0.42,0.3 -0.71,0.3 -0.28,0 -0.51,-0.1 -0.7,-0.3l-0.59 -0.59c-0.2,-0.2 -0.3,-0.43 -0.3,-0.7 0,-0.28 0.1,-0.52 0.3,-0.72l5.11 -5.11c0.18,-0.19 0.42,-0.29 0.71,-0.29 0.28,0 0.52,0.1 0.71,0.29l5.11 5.11c0.2,0.21 0.29,0.44 0.29,0.72z"/>
 </g>
</svg>
