<?xml version="1.0" encoding="UTF-8"?>
<!DOCTYPE svg PUBLIC "-//W3C//DTD SVG 1.1//EN" "http://www.w3.org/Graphics/SVG/1.1/DTD/svg11.dtd">
<!-- Creator: CorelDRAW 2021 (64-Bit) -->
<svg xmlns="http://www.w3.org/2000/svg" xml:space="preserve" width="109px" height="84px" version="1.1" style="shape-rendering:geometricPrecision; text-rendering:geometricPrecision; image-rendering:optimizeQuality; fill-rule:evenodd; clip-rule:evenodd"
viewBox="0 0 9.93 7.63"
 xmlns:xlink="http://www.w3.org/1999/xlink"
 xmlns:xodm="http://www.corel.com/coreldraw/odm/2003">
 <defs>
  <style type="text/css">
   <![CDATA[
    .str0 {stroke:#C0C0BF;stroke-width:0.08;stroke-miterlimit:22.9256}
    .fil0 {fill:#009600;fill-rule:nonzero}
   ]]>
  </style>
 </defs>
 <g id="id_frame_buttons">
  <metadata id="CorelCorpID_0Corel-Layer"/>
  <path class="fil0 str0" d="M9.71 1.09c0.12,0.11 0.18,0.26 0.18,0.43 0,0.17 -0.06,0.31 -0.18,0.43l-4.6 4.6 -0.86 0.86c-0.12,0.12 -0.26,0.18 -0.43,0.18 -0.17,0 -0.32,-0.06 -0.44,-0.18l-0.86 -0.86 -2.3 -2.3c-0.12,-0.12 -0.18,-0.26 -0.18,-0.43 0,-0.17 0.06,-0.32 0.18,-0.43l0.86 -0.87c0.12,-0.12 0.27,-0.18 0.44,-0.18 0.16,0 0.31,0.06 0.43,0.18l1.87 1.88 4.17 -4.18c0.11,-0.12 0.26,-0.18 0.43,-0.18 0.17,0 0.31,0.06 0.43,0.18l0.86 0.87z"/>
 </g>
</svg>
