<?xml version="1.0" encoding="UTF-8"?>
<!DOCTYPE svg PUBLIC "-//W3C//DTD SVG 1.1//EN" "http://www.w3.org/Graphics/SVG/1.1/DTD/svg11.dtd">
<!-- Creator: CorelDRAW 2021 (64-Bit) -->
<svg xmlns="http://www.w3.org/2000/svg" xml:space="preserve" width="81px" height="99px" version="1.1" style="shape-rendering:geometricPrecision; text-rendering:geometricPrecision; image-rendering:optimizeQuality; fill-rule:evenodd; clip-rule:evenodd"
viewBox="0 0 5.63 6.87"
 xmlns:xlink="http://www.w3.org/1999/xlink"
 xmlns:xodm="http://www.corel.com/coreldraw/odm/2003">
 <defs>
  <style type="text/css">
   <![CDATA[
    .str0 {stroke:#C0C0BF;stroke-width:0.06;stroke-miterlimit:22.9256}
    .fil0 {fill:#C87500;fill-rule:nonzero}
   ]]>
  </style>
 </defs>
 <g id="id_frame_buttons">
  <metadata id="CorelCorpID_0Corel-Layer"/>
  <path class="fil0 str0" d="M1.58 3.13l2.47 0 0 -0.93c0,-0.34 -0.12,-0.64 -0.36,-0.88 -0.24,-0.24 -0.53,-0.36 -0.87,-0.36 -0.35,0 -0.64,0.12 -0.88,0.36 -0.24,0.24 -0.36,0.54 -0.36,0.88l0 0.93zm4.02 0.46l0 2.79c0,0.12 -0.04,0.23 -0.13,0.32 -0.09,0.09 -0.2,0.14 -0.33,0.14l-4.65 0c-0.12,0 -0.23,-0.05 -0.32,-0.14 -0.09,-0.09 -0.14,-0.2 -0.14,-0.32l0 -2.79c0,-0.13 0.05,-0.24 0.14,-0.33 0.09,-0.09 0.2,-0.13 0.32,-0.13l0.16 0 0 -0.93c0,-0.6 0.21,-1.11 0.64,-1.53 0.42,-0.43 0.93,-0.64 1.53,-0.64 0.59,0 1.1,0.21 1.52,0.64 0.43,0.42 0.64,0.93 0.64,1.53l0 0.93 0.16 0c0.13,0 0.24,0.04 0.33,0.13 0.09,0.09 0.13,0.2 0.13,0.33z"/>
 </g>
</svg>
