<svg xmlns="http://www.w3.org/2000/svg" xmlns:xlink="http://www.w3.org/1999/xlink" xmlns:xodm="http://www.corel.com/coreldraw/odm/2003" xml:space="preserve" version="1.1" style="shape-rendering:geometricPrecision; text-rendering:geometricPrecision; image-rendering:optimizeQuality; fill-rule:evenodd; clip-rule:evenodd" viewBox="1154.68 1588.54 170.64 324.8">
 <defs>
  <style type="text/css">
   <![CDATA[
    .str0 {stroke:blue;stroke-width:0.9;stroke-miterlimit:22.9256}
    .fil0 {fill:none;fill-rule:nonzero}
   ]]>
  </style>
 </defs>
 <g id="Слой_x0020_1">
  <metadata id="CorelCorpID_0Corel-Layer"/>
  <path id="bottle_grey_abris" class="fil0 str0" d="M1324.87 1892.76c0,-63.12 -0.4,-152.47 -0.4,-208.97 0,-3.72 -3.03,-6.23 -7.33,-9.35 -1.85,-1.35 -8.08,-4.52 -15.96,-8.54 -11.66,-5.95 -26.17,-13.34 -33.99,-18.59 -15.1,-10.15 -10.31,-33.1 -10.31,-49.6 1.95,-0.5 3.4,-2.22 3.4,-4.28 0,-2.45 -2.03,-4.44 -4.54,-4.44l-31.88 0c-2.5,0 -4.53,1.99 -4.53,4.44 0,2.06 1.45,3.78 3.4,4.28 0.01,16.12 2.51,40.98 -10.32,49.6 -7.89,5.29 -22.56,12.78 -34.35,18.79 -7.71,3.94 -13.81,7.05 -15.59,8.34 -4.25,3.07 -7.34,7 -7.34,9.35 0,55.63 0,144.97 0,208.97 0,13.23 11.54,20 20,20 43.15,0.32 86.4,-0.06 129.58,-0.06 10.37,0.06 20.16,-8.42 20.16,-19.94z"/>
 </g>
</svg>