<?xml version="1.0" encoding="UTF-8"?>
<!DOCTYPE svg PUBLIC "-//W3C//DTD SVG 1.1//EN" "http://www.w3.org/Graphics/SVG/1.1/DTD/svg11.dtd">
<!-- Creator: CorelDRAW 2021 (64-Bit) -->
<svg xmlns="http://www.w3.org/2000/svg" xml:space="preserve" width="84px" height="84px" version="1.1" style="shape-rendering:geometricPrecision; text-rendering:geometricPrecision; image-rendering:optimizeQuality; fill-rule:evenodd; clip-rule:evenodd"
viewBox="0 0 6.01 6.01"
 xmlns:xlink="http://www.w3.org/1999/xlink"
 xmlns:xodm="http://www.corel.com/coreldraw/odm/2003">
 <defs>
  <style type="text/css">
   <![CDATA[
    .str0 {stroke:#C0C0BF;stroke-width:0.06;stroke-miterlimit:22.9256}
    .fil0 {fill:#C87500;fill-rule:nonzero}
   ]]>
  </style>
 </defs>
 <g id="id_frame_buttons">
  <metadata id="CorelCorpID_0Corel-Layer"/>
  <path class="fil0 str0" d="M5.84 4.48c0.09,0.09 0.14,0.2 0.14,0.34 0,0.13 -0.05,0.24 -0.14,0.34l-0.68 0.68c-0.1,0.09 -0.21,0.14 -0.34,0.14 -0.14,0 -0.25,-0.05 -0.34,-0.14l-1.48 -1.48 -1.47 1.48c-0.09,0.09 -0.2,0.14 -0.34,0.14 -0.13,0 -0.24,-0.05 -0.34,-0.14l-0.68 -0.68c-0.09,-0.1 -0.14,-0.21 -0.14,-0.34 0,-0.14 0.05,-0.25 0.14,-0.34l1.47 -1.48 -1.47 -1.47c-0.09,-0.09 -0.14,-0.2 -0.14,-0.34 0,-0.13 0.05,-0.24 0.14,-0.34l0.68 -0.68c0.1,-0.09 0.21,-0.14 0.34,-0.14 0.14,0 0.25,0.05 0.34,0.14l1.47 1.47 1.48 -1.47c0.09,-0.09 0.2,-0.14 0.34,-0.14 0.13,0 0.24,0.05 0.34,0.14l0.68 0.68c0.09,0.1 0.14,0.21 0.14,0.34 0,0.14 -0.05,0.25 -0.14,0.34l-1.47 1.47 1.47 1.48z"/>
 </g>
</svg>
