<?xml version="1.0" encoding="UTF-8"?>
<!DOCTYPE svg PUBLIC "-//W3C//DTD SVG 1.1//EN" "http://www.w3.org/Graphics/SVG/1.1/DTD/svg11.dtd">
<!-- Creator: CorelDRAW 2021 (64-Bit) -->
<svg xmlns="http://www.w3.org/2000/svg" xml:space="preserve" width="171px" height="325px" version="1.1" style="shape-rendering:geometricPrecision; text-rendering:geometricPrecision; image-rendering:optimizeQuality; fill-rule:evenodd; clip-rule:evenodd"
viewBox="0 0 171 325.49"
 xmlns:xlink="http://www.w3.org/1999/xlink"
 xmlns:xodm="http://www.corel.com/coreldraw/odm/2003">
 <defs>
  <style type="text/css">
   <![CDATA[
    .str0 {stroke:blue;stroke-width:0.9;stroke-miterlimit:22.9256}
    .fil0 {fill:#1212FC;fill-rule:nonzero}
   ]]>
  </style>
 </defs>
 <g id="Слой_x0020_1">
  <metadata id="CorelCorpID_0Corel-Layer"/>
  <path id="bottle_grey_abris" class="fil0 str0" d="M170.55 304.86c0,-63.25 -0.4,-152.79 -0.4,-209.41 0,-3.73 -3.04,-6.24 -7.34,-9.37 -1.86,-1.35 -8.1,-4.53 -16,-8.56 -11.69,-5.96 -26.23,-13.37 -34.06,-18.63 -15.14,-10.17 -10.34,-33.16 -10.34,-49.71 1.96,-0.49 3.41,-2.22 3.41,-4.28 0,-2.46 -2.03,-4.45 -4.54,-4.45l-31.95 0c-2.51,0 -4.54,1.99 -4.54,4.45 0,2.07 1.45,3.79 3.4,4.28 0.01,16.16 2.52,41.08 -10.34,49.71 -7.9,5.31 -22.6,12.81 -34.42,18.84 -7.73,3.94 -13.84,7.05 -15.63,8.35 -4.26,3.08 -7.35,7.02 -7.35,9.37 0,55.74 0,145.27 0,209.41 0,13.26 11.56,20.04 20.04,20.04 43.25,0.33 86.59,-0.05 129.86,-0.05 10.39,0.05 20.2,-8.44 20.2,-19.99z"/>
 </g>
</svg>
