<?xml version="1.0" encoding="UTF-8"?>
<!DOCTYPE svg PUBLIC "-//W3C//DTD SVG 1.1//EN" "http://www.w3.org/Graphics/SVG/1.1/DTD/svg11.dtd">
<!-- Creator: CorelDRAW 2021 (64-Bit) -->
<svg xmlns="http://www.w3.org/2000/svg" xml:space="preserve" width="99px" height="99px" version="1.1" style="shape-rendering:geometricPrecision; text-rendering:geometricPrecision; image-rendering:optimizeQuality; fill-rule:evenodd; clip-rule:evenodd"
viewBox="0 0 9.93 9.93"
 xmlns:xlink="http://www.w3.org/1999/xlink"
 xmlns:xodm="http://www.corel.com/coreldraw/odm/2003">
 <defs>
  <style type="text/css">
   <![CDATA[
    .str0 {stroke:#C0C0BF;stroke-width:0.09;stroke-miterlimit:22.9256}
    .fil0 {fill:#1060AA;fill-rule:nonzero}
   ]]>
  </style>
 </defs>
 <g id="id_frame_buttons">
  <metadata id="CorelCorpID_0Corel-Layer"/>
  <path class="fil0 str0" d="M9.89 4.29l0 1.35c0,0.18 -0.07,0.34 -0.2,0.47 -0.13,0.13 -0.29,0.2 -0.47,0.2l-2.91 0 0 2.91c0,0.18 -0.07,0.34 -0.2,0.47 -0.13,0.13 -0.29,0.2 -0.47,0.2l-1.34 0c-0.19,0 -0.35,-0.07 -0.48,-0.2 -0.13,-0.13 -0.2,-0.29 -0.2,-0.47l0 -2.91 -2.9 0c-0.19,0 -0.35,-0.07 -0.48,-0.2 -0.13,-0.13 -0.19,-0.29 -0.19,-0.47l0 -1.35c0,-0.18 0.06,-0.34 0.19,-0.47 0.13,-0.13 0.29,-0.2 0.48,-0.2l2.9 0 0 -2.9c0,-0.19 0.07,-0.35 0.2,-0.48 0.13,-0.13 0.29,-0.19 0.48,-0.19l1.34 0c0.18,0 0.34,0.06 0.47,0.19 0.13,0.13 0.2,0.29 0.2,0.48l0 2.9 2.91 0c0.18,0 0.34,0.07 0.47,0.2 0.13,0.13 0.2,0.29 0.2,0.47z"/>
 </g>
</svg>
